<mxfile host="app.diagrams.net" modified="2022-02-06T22:16:56.039Z" agent="5.0 (Macintosh; Intel Mac OS X 10_15_7) AppleWebKit/537.36 (KHTML, like Gecko) Chrome/93.0.4577.63 Safari/537.36" etag="YipQ4sPQjVIhWy2j-6x4" version="16.4.6" type="github">
  <diagram name="Page-1" id="efa7a0a1-bf9b-a30e-e6df-94a7791c09e9">
    <mxGraphModel dx="2528" dy="2397" grid="1" gridSize="10" guides="1" tooltips="1" connect="1" arrows="1" fold="1" page="1" pageScale="1" pageWidth="826" pageHeight="1169" background="#283618" math="0" shadow="0">
      <root>
        <mxCell id="0" />
        <mxCell id="1" parent="0" />
        <mxCell id="nvz1fvDRYt0QWDwu4Yj0-134" value="&lt;h1 style=&quot;font-size: 17px&quot;&gt;&lt;font style=&quot;font-size: 17px&quot;&gt;SportTypes Enum&lt;br&gt;&lt;/font&gt;&lt;/h1&gt;&lt;div&gt;&lt;font style=&quot;font-size: 12px&quot;&gt;Tum sporlarin listesi&lt;/font&gt;&lt;/div&gt;&lt;p style=&quot;font-size: 14px&quot;&gt;&lt;/p&gt;&lt;ul&gt;&lt;li&gt;Football&lt;/li&gt;&lt;li&gt;Tennis&lt;/li&gt;&lt;li&gt;Sprint&lt;/li&gt;&lt;/ul&gt;&lt;p&gt;&lt;/p&gt;" style="text;html=1;strokeColor=none;fillColor=none;spacing=5;spacingTop=-20;whiteSpace=wrap;overflow=hidden;rounded=1;fontColor=#FEFAE0;" vertex="1" parent="1">
          <mxGeometry x="-740" y="-990" width="180" height="160" as="geometry" />
        </mxCell>
        <mxCell id="nvz1fvDRYt0QWDwu4Yj0-139" value="&lt;p style=&quot;margin: 0px ; margin-top: 4px ; text-align: center ; text-decoration: underline&quot;&gt;&lt;strong&gt;Chat&lt;/strong&gt;&lt;/p&gt;&lt;hr&gt;&lt;p style=&quot;margin: 0px ; margin-left: 8px&quot;&gt;_id&lt;/p&gt;&lt;p style=&quot;margin: 0px ; margin-left: 8px&quot;&gt;fromId =&amp;gt; kimden&lt;/p&gt;&lt;p style=&quot;margin: 0px ; margin-left: 8px&quot;&gt;toId =&amp;gt; kime&lt;/p&gt;&lt;p style=&quot;margin: 0px ; margin-left: 8px&quot;&gt;message&lt;/p&gt;&lt;p style=&quot;margin: 0px ; margin-left: 8px&quot;&gt;isReaded =&amp;gt; okundu mu?&lt;/p&gt;" style="verticalAlign=top;align=left;overflow=fill;fontSize=12;fontFamily=Helvetica;html=1;strokeColor=#DDA15E;shadow=1;fillColor=#BC6C25;fontColor=#FEFAE0;rounded=1;" vertex="1" parent="1">
          <mxGeometry x="50" y="-1049.9999999999995" width="160" height="160" as="geometry" />
        </mxCell>
        <mxCell id="nvz1fvDRYt0QWDwu4Yj0-141" value="" style="group" vertex="1" connectable="0" parent="1">
          <mxGeometry x="-220" y="-600" width="430" height="200" as="geometry" />
        </mxCell>
        <mxCell id="nvz1fvDRYt0QWDwu4Yj0-132" value="&lt;p style=&quot;margin: 0px ; margin-top: 4px ; text-align: center ; text-decoration: underline&quot;&gt;&lt;strong&gt;Events&lt;/strong&gt;&lt;/p&gt;&lt;hr&gt;&lt;p style=&quot;margin: 0px ; margin-left: 8px&quot;&gt;_id&lt;/p&gt;&lt;p style=&quot;margin: 0px ; margin-left: 8px&quot;&gt;userId =&amp;gt; kullanici id&lt;/p&gt;&lt;p style=&quot;margin: 0px ; margin-left: 8px&quot;&gt;sportTypeId =&amp;gt; Spor tipi&lt;/p&gt;&lt;p style=&quot;margin: 0px ; margin-left: 8px&quot;&gt;beginDate =&amp;gt; baslangic&lt;/p&gt;&lt;p style=&quot;margin: 0px ; margin-left: 8px&quot;&gt;endDate =&amp;gt; bitis&lt;/p&gt;&lt;p style=&quot;margin: 0px ; margin-left: 8px&quot;&gt;location =&amp;gt; point&lt;/p&gt;&lt;p style=&quot;margin: 0px ; margin-left: 8px&quot;&gt;totalSlot =&amp;gt; toplam kisi&lt;/p&gt;&lt;p style=&quot;margin: 0px ; margin-left: 8px&quot;&gt;emptySlot =&amp;gt; eksik kisi&lt;/p&gt;&lt;p style=&quot;margin: 0px ; margin-left: 8px&quot;&gt;users[] =&amp;gt; katilanlar&lt;/p&gt;&lt;p style=&quot;margin: 0px ; margin-left: 8px&quot;&gt;&lt;br&gt;&lt;/p&gt;&lt;p style=&quot;margin: 0px ; margin-left: 8px&quot;&gt;&lt;br&gt;&lt;/p&gt;" style="verticalAlign=top;align=left;overflow=fill;fontSize=12;fontFamily=Helvetica;html=1;strokeColor=#DDA15E;shadow=1;fillColor=#BC6C25;fontColor=#FEFAE0;rounded=1;" vertex="1" parent="nvz1fvDRYt0QWDwu4Yj0-141">
          <mxGeometry x="270" width="160" height="200" as="geometry" />
        </mxCell>
        <mxCell id="nvz1fvDRYt0QWDwu4Yj0-136" value="" style="edgeStyle=orthogonalEdgeStyle;rounded=1;orthogonalLoop=1;jettySize=auto;html=1;fontSize=14;labelBackgroundColor=#283618;strokeColor=#DDA15E;fontColor=#FEFAE0;" edge="1" parent="nvz1fvDRYt0QWDwu4Yj0-141" source="nvz1fvDRYt0QWDwu4Yj0-135" target="nvz1fvDRYt0QWDwu4Yj0-132">
          <mxGeometry relative="1" as="geometry" />
        </mxCell>
        <mxCell id="nvz1fvDRYt0QWDwu4Yj0-135" value="Events koleksiyonu kullanicilarin&lt;br&gt;kaydettikleri etkinlikleri tutar.&lt;br&gt;Event girerken kac kisi olduklarini&lt;br&gt;ve kac kisiye ihtiyac duyduklarini&lt;br&gt;girerler." style="text;html=1;align=center;verticalAlign=middle;resizable=0;points=[];autosize=1;strokeColor=none;fillColor=none;fontSize=14;rounded=1;fontColor=#FEFAE0;" vertex="1" parent="nvz1fvDRYt0QWDwu4Yj0-141">
          <mxGeometry y="55" width="220" height="90" as="geometry" />
        </mxCell>
        <mxCell id="nvz1fvDRYt0QWDwu4Yj0-142" value="&lt;h1 style=&quot;font-size: 17px&quot;&gt;&lt;font style=&quot;font-size: 17px&quot;&gt;Level Enum&lt;/font&gt;&lt;/h1&gt;&lt;div&gt;&lt;font style=&quot;font-size: 13px&quot;&gt;Yetkinlik seviyesi&lt;/font&gt;&lt;/div&gt;&lt;p style=&quot;font-size: 14px&quot;&gt;&lt;/p&gt;&lt;ul&gt;&lt;li&gt;Baslangic&lt;/li&gt;&lt;li&gt;Eglence&lt;/li&gt;&lt;li&gt;Deneyimli&lt;/li&gt;&lt;li&gt;Profesyonel&lt;/li&gt;&lt;/ul&gt;&lt;p&gt;&lt;/p&gt;" style="text;html=1;strokeColor=none;fillColor=none;spacing=5;spacingTop=-20;whiteSpace=wrap;overflow=hidden;rounded=1;fontColor=#FEFAE0;" vertex="1" parent="1">
          <mxGeometry x="-530" y="-990" width="180" height="130" as="geometry" />
        </mxCell>
        <mxCell id="nvz1fvDRYt0QWDwu4Yj0-148" value="" style="edgeStyle=orthogonalEdgeStyle;curved=0;rounded=1;sketch=0;orthogonalLoop=1;jettySize=auto;html=1;fontSize=13;fontColor=#FEFAE0;strokeColor=#DDA15E;fillColor=#BC6C25;" edge="1" parent="1" source="nvz1fvDRYt0QWDwu4Yj0-147" target="nvz1fvDRYt0QWDwu4Yj0-139">
          <mxGeometry relative="1" as="geometry" />
        </mxCell>
        <mxCell id="nvz1fvDRYt0QWDwu4Yj0-147" value="Chat koleksiyonu sohbet mesajlarini&lt;br&gt;tutar. Bir kullanicidan digerine giden&lt;br&gt;mesajlar burada durur." style="text;html=1;align=center;verticalAlign=middle;resizable=0;points=[];autosize=1;strokeColor=none;fillColor=none;fontSize=14;rounded=1;fontColor=#FEFAE0;" vertex="1" parent="1">
          <mxGeometry x="-260" y="-1000" width="240" height="60" as="geometry" />
        </mxCell>
        <mxCell id="nvz1fvDRYt0QWDwu4Yj0-157" value="&lt;span style=&quot;white-space: pre&quot;&gt;	&lt;/span&gt;favoriteTypes&lt;br&gt;&amp;nbsp; &amp;nbsp;- sportTypeId&lt;br&gt;&amp;nbsp; &amp;nbsp;- level =&amp;gt; yetkinlik&lt;br&gt;&amp;nbsp; &amp;nbsp;- beginDate" style="shape=hexagon;perimeter=hexagonPerimeter2;whiteSpace=wrap;html=1;fixedSize=1;align=left;verticalAlign=top;fillColor=#BC6C25;strokeColor=#DDA15E;fontColor=#FEFAE0;shadow=1;rounded=1;" vertex="1" parent="1">
          <mxGeometry x="250" y="-859.9999999999995" width="120" height="80" as="geometry" />
        </mxCell>
        <mxCell id="nvz1fvDRYt0QWDwu4Yj0-158" value="" style="edgeStyle=orthogonalEdgeStyle;curved=0;rounded=1;sketch=0;orthogonalLoop=1;jettySize=auto;html=1;fontSize=13;fontColor=#FEFAE0;strokeColor=#DDA15E;fillColor=#BC6C25;exitX=1.016;exitY=0.567;exitDx=0;exitDy=0;exitPerimeter=0;" edge="1" parent="1" source="nvz1fvDRYt0QWDwu4Yj0-161" target="nvz1fvDRYt0QWDwu4Yj0-157">
          <mxGeometry relative="1" as="geometry">
            <mxPoint x="210" y="-760" as="sourcePoint" />
          </mxGeometry>
        </mxCell>
        <mxCell id="nvz1fvDRYt0QWDwu4Yj0-160" value="" style="group" vertex="1" connectable="0" parent="1">
          <mxGeometry x="-270" y="-839.9999999999995" width="480.00000000000006" height="160" as="geometry" />
        </mxCell>
        <mxCell id="nvz1fvDRYt0QWDwu4Yj0-161" value="&lt;p style=&quot;margin: 0px ; margin-top: 4px ; text-align: center ; text-decoration: underline&quot;&gt;&lt;strong&gt;User&lt;/strong&gt;&lt;/p&gt;&lt;hr&gt;&lt;p style=&quot;margin: 0px ; margin-left: 8px&quot;&gt;_id&lt;/p&gt;&lt;p style=&quot;margin: 0px ; margin-left: 8px&quot;&gt;fullName&lt;/p&gt;&lt;p style=&quot;margin: 0px ; margin-left: 8px&quot;&gt;age&lt;/p&gt;&lt;p style=&quot;margin: 0px ; margin-left: 8px&quot;&gt;gender&lt;/p&gt;&lt;p style=&quot;margin: 0px ; margin-left: 8px&quot;&gt;initialLocation =&amp;gt; ilk konum&lt;/p&gt;&lt;p style=&quot;margin: 0px ; margin-left: 8px&quot;&gt;favoriteTypes[] =&amp;gt; favoriler&lt;/p&gt;" style="verticalAlign=top;align=left;overflow=fill;fontSize=12;fontFamily=Helvetica;html=1;strokeColor=#DDA15E;shadow=1;fillColor=#BC6C25;fontColor=#FEFAE0;rounded=1;" vertex="1" parent="nvz1fvDRYt0QWDwu4Yj0-160">
          <mxGeometry x="320.00000000000006" width="160" height="160" as="geometry" />
        </mxCell>
        <mxCell id="nvz1fvDRYt0QWDwu4Yj0-162" value="" style="edgeStyle=orthogonalEdgeStyle;rounded=1;orthogonalLoop=1;jettySize=auto;html=1;fontSize=14;labelBackgroundColor=#283618;strokeColor=#DDA15E;fontColor=#FEFAE0;" edge="1" parent="nvz1fvDRYt0QWDwu4Yj0-160" source="nvz1fvDRYt0QWDwu4Yj0-163" target="nvz1fvDRYt0QWDwu4Yj0-161">
          <mxGeometry relative="1" as="geometry" />
        </mxCell>
        <mxCell id="nvz1fvDRYt0QWDwu4Yj0-163" value="User koleksiyonu kullanicilari&lt;br&gt;tutar. Favori spor dallarini kaydetmek&lt;br&gt;uygulamaya tekrar girdiginde filtreleri&lt;br&gt;dolu getirmeye yarar." style="text;html=1;align=center;verticalAlign=middle;resizable=0;points=[];autosize=1;strokeColor=none;fillColor=none;fontSize=14;rounded=1;fontColor=#FEFAE0;" vertex="1" parent="nvz1fvDRYt0QWDwu4Yj0-160">
          <mxGeometry y="44.999999999999545" width="240" height="70" as="geometry" />
        </mxCell>
      </root>
    </mxGraphModel>
  </diagram>
</mxfile>
